<svg id="kity_svg_6" xmlns="http://www.w3.org/2000/svg" xmlns:xlink="http://www.w3.org/1999/xlink" version="1.1" width="579" height="540" style="background: rgb(251, 251, 251); visibility: visible;" viewBox="0 0 579 540"><defs id="kity_defs_7"><linearGradient id="kity_linearGradient_17" x1="0" y1="0" x2="0" y2="1"><stop id="kity_stop_18" offset="0" stop-color="rgb(255, 255, 255)"></stop><stop id="kity_stop_19" offset="1" stop-color="rgb(204, 204, 204)"></stop></linearGradient><marker id="kity_marker_2" orient="auto" refX="6" refY="0" viewBox="-7 -7 14 14" markerWidth="7" markerHeight="7" markerUnits="userSpaceOnUse"><path id="kity_path_3" fill="rgb(115, 161, 191)" stroke="none" d="M6,0A6,6,0,1,1,-6,0A6,6,0,1,1,6,0"></path></marker></defs><g id="kity_g_8"><g id="minder1" text-rendering="optimize-speed"><g id="minder_connect_group1"><path id="kity_path_31" fill="none" stroke="rgb(115, 161, 191)" stroke-width="1" d="M94,222.5A69.5,139,0,0,1,163.5,83.5"></path><path id="kity_path_39" fill="none" stroke="rgb(115, 161, 191)" stroke-width="1" d="M94,222.5A69.5,131,0,0,0,163.5,353.5"></path><path id="kity_path_182" fill="none" stroke="rgb(115, 161, 191)" stroke-width="1" d="M235.5,83.5C255.5,83.5,255.5,31.5,275.5,31.5"></path><path id="kity_path_183" fill="none" stroke="rgb(115, 161, 191)" stroke-width="1" d="M331.5,83.5C351.5,83.5,351.5,83.5,371.5,83.5"></path><path id="kity_path_184" fill="none" stroke="rgb(115, 161, 191)" stroke-width="1" d="M235.5,83.5C255.5,83.5,255.5,83.5,275.5,83.5"></path><path id="kity_path_185" fill="none" stroke="rgb(115, 161, 191)" stroke-width="1" d="M235.5,83.5C255.5,83.5,255.5,135.5,275.5,135.5"></path><path id="kity_path_186" fill="none" stroke="rgb(115, 161, 191)" stroke-width="1" d="M417.5,197.5C437.5,197.5,437.5,197.5,457.5,197.5"></path><path id="kity_path_187" fill="none" stroke="rgb(115, 161, 191)" stroke-width="1" d="M235.5,353.5C255.5,353.5,255.5,197.5,275.5,197.5"></path><path id="kity_path_188" fill="none" stroke="rgb(115, 161, 191)" stroke-width="1" d="M415.5,249.5C435.5,249.5,435.5,249.5,455.5,249.5"></path><path id="kity_path_189" fill="none" stroke="rgb(115, 161, 191)" stroke-width="1" d="M235.5,353.5C255.5,353.5,255.5,249.5,275.5,249.5"></path><path id="kity_path_190" fill="none" stroke="rgb(115, 161, 191)" stroke-width="1" d="M437.5,301.5C457.5,301.5,457.5,301.5,477.5,301.5"></path><path id="kity_path_191" fill="none" stroke="rgb(115, 161, 191)" stroke-width="1" d="M235.5,353.5C255.5,353.5,255.5,301.5,275.5,301.5"></path><path id="kity_path_192" fill="none" stroke="rgb(115, 161, 191)" stroke-width="1" d="M429.5,353.5C449.5,353.5,449.5,353.5,469.5,353.5"></path><path id="kity_path_193" fill="none" stroke="rgb(115, 161, 191)" stroke-width="1" d="M235.5,353.5C255.5,353.5,255.5,353.5,275.5,353.5"></path><path id="kity_path_194" fill="none" stroke="rgb(115, 161, 191)" stroke-width="1" d="M365.5,405.5C385.5,405.5,385.5,405.5,405.5,405.5"></path><path id="kity_path_195" fill="none" stroke="rgb(115, 161, 191)" stroke-width="1" d="M235.5,353.5C255.5,353.5,255.5,405.5,275.5,405.5"></path><path id="kity_path_196" fill="none" stroke="rgb(115, 161, 191)" stroke-width="1" d="M372.5,457.5C392.5,457.5,392.5,457.5,412.5,457.5"></path><path id="kity_path_197" fill="none" stroke="rgb(115, 161, 191)" stroke-width="1" d="M235.5,353.5C255.5,353.5,255.5,457.5,275.5,457.5"></path><path id="kity_path_198" fill="none" stroke="rgb(115, 161, 191)" stroke-width="1" d="M235.5,353.5C255.5,353.5,255.5,509.5,275.5,509.5"></path></g><g id="minder_node1"><path id="node_outline1" fill="rgb(115, 161, 191)" stroke="rgb(115, 161, 191)" d="M25.5,202.5h137a5,5,0,0,1,5,5v30a5,5,0,0,1,-5,5h-137a5,5,0,0,1,-5,-5v-30a5,5,0,0,1,5,-5z" stroke-width="3"></path><g id="node_text1" fill="white"><text id="kity_text_22" text-rendering="inherit" font-size="16" dy=".8em" y="212.09999990463257" x="44.5">GPU设备对象</text></g></g><g id="kity_g_14" display="none"><path id="kity_path_15" fill="rgba(0, 92, 153, 0.5)" stroke="none" d="M397.5,269.5h140v15h-140z"></path><path id="kity_path_16" fill="none" stroke="rgb(0, 76, 128)" d="M397.5,269.5L537.5,269.5" stroke-width="1"></path></g><g id="minder_node2" opacity="1"><g id="node_expander1" style="cursor: pointer;"><path id="kity_path_36" fill="white" stroke="gray" d="M164.5,83.5A6,6,0,1,1,152.5,83.5A6,6,0,1,1,164.5,83.5"></path><path id="kity_path_37" fill="none" stroke="gray" d="M154,83.5L163,83.5"></path></g><path id="node_outline2" fill="rgb(238, 243, 246)" stroke="rgb(115, 161, 191)" d="M168.5,70.5h64a3,3,0,0,1,3,3v20a3,3,0,0,1,-3,3h-64a3,3,0,0,1,-3,-3v-20a3,3,0,0,1,3,-3z" stroke-width="1"></path><g id="node_text2" fill="black"><text id="kity_text_33" text-rendering="inherit" font-size="14" dy=".8em" y="74.40000009536743" x="185.5">属性</text></g></g><g id="minder_node3" opacity="1"><g id="node_expander2" style="cursor: pointer;"><path id="kity_path_44" fill="white" stroke="gray" d="M164.5,353.5A6,6,0,1,1,152.5,353.5A6,6,0,1,1,164.5,353.5"></path><path id="kity_path_45" fill="none" stroke="gray" d="M154,353.5L163,353.5"></path></g><path id="node_outline3" fill="rgb(238, 243, 246)" stroke="rgb(115, 161, 191)" d="M168.5,340.5h64a3,3,0,0,1,3,3v20a3,3,0,0,1,-3,3h-64a3,3,0,0,1,-3,-3v-20a3,3,0,0,1,3,-3z" stroke-width="1"></path><g id="node_text3" fill="black"><text id="kity_text_41" text-rendering="inherit" font-size="14" dy=".8em" y="344.40000009536743" x="185.5">方法</text></g></g><g id="kity_g_12" display="none"><path id="kity_path_13" fill="none" stroke="rgb(66, 94, 112)" d="M402.5,242.5h130a5,5,0,0,1,5,5v12a5,5,0,0,1,-5,5h-130a5,5,0,0,1,-5,-5v-12a5,5,0,0,1,5,-5z" stroke-width="5"></path></g><g id="minder_node5"><g id="node_expander4" style="cursor: pointer;" display="none"><path id="kity_path_60" fill="white" stroke="gray" d="M275.5,31.5A6,6,0,1,1,263.5,31.5A6,6,0,1,1,275.5,31.5"></path><path id="kity_path_61" fill="none" stroke="gray"></path></g><path id="node_outline5" fill="none" stroke="none" d="M280.5,20.5h57a5,5,0,0,1,5,5v12a5,5,0,0,1,-5,5h-57a5,5,0,0,1,-5,-5v-12a5,5,0,0,1,5,-5z" stroke-width="3"></path><g id="node_text5" fill="black"><text id="kity_text_57" text-rendering="inherit" font-size="12" dy=".8em" y="23.700000047683716" x="285.5">features</text></g></g><g id="minder_node14"><g id="node_expander13" style="cursor: pointer;" display="none"><path id="kity_path_132" fill="white" stroke="gray" d="M371.5,83.5A6,6,0,1,1,359.5,83.5A6,6,0,1,1,371.5,83.5"></path><path id="kity_path_133" fill="none" stroke="gray"></path></g><path id="node_outline14" fill="none" stroke="none" d="M376.5,72.5h59a5,5,0,0,1,5,5v12a5,5,0,0,1,-5,5h-59a5,5,0,0,1,-5,-5v-12a5,5,0,0,1,5,-5z" stroke-width="3"></path><g id="node_text14" fill="black"><text id="kity_text_129" text-rendering="inherit" font-size="12" dy=".8em" y="75.70000004768372" x="381.5">命令队列</text></g></g><g id="minder_node4" opacity="1"><g id="node_expander3" style="cursor: pointer;"><path id="kity_path_52" fill="white" stroke="gray" d="M275.5,83.5A6,6,0,1,1,263.5,83.5A6,6,0,1,1,275.5,83.5"></path><path id="kity_path_53" fill="none" stroke="gray" d="M265,83.5L274,83.5"></path></g><path id="node_outline4" fill="none" stroke="none" d="M280.5,72.5h46a5,5,0,0,1,5,5v12a5,5,0,0,1,-5,5h-46a5,5,0,0,1,-5,-5v-12a5,5,0,0,1,5,-5z" stroke-width="3"></path><g id="node_text4" fill="black"><text id="kity_text_49" text-rendering="inherit" font-size="12" dy=".8em" y="75.70000004768372" x="285.5">queue</text></g></g><g id="minder_node11"><g id="node_expander10" style="cursor: pointer;" display="none"><path id="kity_path_108" fill="white" stroke="gray" d="M275.5,135.5A6,6,0,1,1,263.5,135.5A6,6,0,1,1,275.5,135.5"></path><path id="kity_path_109" fill="none" stroke="gray"></path></g><path id="node_outline11" fill="none" stroke="none" d="M280.5,124.5h19a5,5,0,0,1,5,5v12a5,5,0,0,1,-5,5h-19a5,5,0,0,1,-5,-5v-12a5,5,0,0,1,5,-5z" stroke-width="3"></path><g id="node_text11" fill="black"><text id="kity_text_105" text-rendering="inherit" font-size="12" dy=".8em" y="127.70000004768372" x="285.5">...</text></g></g><g id="minder_node15"><g id="node_expander14" style="cursor: pointer;" display="none"><path id="kity_path_140" fill="white" stroke="gray" d="M457.5,197.5A6,6,0,1,1,445.5,197.5A6,6,0,1,1,457.5,197.5"></path><path id="kity_path_141" fill="none" stroke="gray"></path></g><path id="node_outline15" fill="none" stroke="none" d="M462.5,186.5h60a5,5,0,0,1,5,5v12a5,5,0,0,1,-5,5h-60a5,5,0,0,1,-5,-5v-12a5,5,0,0,1,5,-5z" stroke-width="3"></path><g id="node_text15" fill="black"><text id="kity_text_137" text-rendering="inherit" font-size="12" dy=".8em" y="189.70000004768372" x="467.5">渲染管线</text></g></g><g id="minder_node10" opacity="1"><g id="node_expander9" style="cursor: pointer;"><path id="kity_path_100" fill="white" stroke="gray" d="M275.5,197.5A6,6,0,1,1,263.5,197.5A6,6,0,1,1,275.5,197.5"></path><path id="kity_path_101" fill="none" stroke="gray" d="M265,197.5L274,197.5"></path></g><path id="node_outline10" fill="none" stroke="none" d="M280.5,186.5h132a5,5,0,0,1,5,5v12a5,5,0,0,1,-5,5h-132a5,5,0,0,1,-5,-5v-12a5,5,0,0,1,5,-5z" stroke-width="3"></path><g id="node_text10" fill="black"><text id="kity_text_97" text-rendering="inherit" font-size="12" dy=".8em" y="189.70000004768372" x="285.5">createRenderPipeline</text></g></g><g id="minder_node16"><g id="node_expander15" style="cursor: pointer;" display="none"><path id="kity_path_148" fill="white" stroke="gray" d="M455.5,249.5A6,6,0,1,1,443.5,249.5A6,6,0,1,1,455.5,249.5"></path><path id="kity_path_149" fill="none" stroke="gray"></path></g><path id="node_outline16" fill="none" stroke="none" d="M460.5,238.5h71a5,5,0,0,1,5,5v12a5,5,0,0,1,-5,5h-71a5,5,0,0,1,-5,-5v-12a5,5,0,0,1,5,-5z" stroke-width="3"></path><g id="node_text16" fill="black"><text id="kity_text_145" text-rendering="inherit" font-size="12" dy=".8em" y="241.70000004768372" x="465.5">着色器模块</text></g></g><g id="minder_node8" opacity="1"><g id="node_expander7" style="cursor: pointer;"><path id="kity_path_84" fill="white" stroke="gray" d="M275.5,249.5A6,6,0,1,1,263.5,249.5A6,6,0,1,1,275.5,249.5"></path><path id="kity_path_85" fill="none" stroke="gray" d="M265,249.5L274,249.5"></path></g><path id="node_outline8" fill="none" stroke="none" d="M280.5,238.5h130a5,5,0,0,1,5,5v12a5,5,0,0,1,-5,5h-130a5,5,0,0,1,-5,-5v-12a5,5,0,0,1,5,-5z" stroke-width="3"></path><g id="node_text8" fill="black"><text id="kity_text_81" text-rendering="inherit" font-size="12" dy=".8em" y="241.70000004768372" x="285.5">createShaderModule</text></g></g><g id="minder_node17"><g id="node_expander16" style="cursor: pointer;" display="none"><path id="kity_path_156" fill="white" stroke="gray" d="M477.5,301.5A6,6,0,1,1,465.5,301.5A6,6,0,1,1,477.5,301.5"></path><path id="kity_path_157" fill="none" stroke="gray"></path></g><path id="node_outline17" fill="none" stroke="none" d="M482.5,290.5h72a5,5,0,0,1,5,5v12a5,5,0,0,1,-5,5h-72a5,5,0,0,1,-5,-5v-12a5,5,0,0,1,5,-5z" stroke-width="3"></path><g id="node_text17" fill="black"><text id="kity_text_153" text-rendering="inherit" font-size="12" dy=".8em" y="293.7000000476837" x="487.5">命令编码器</text></g></g><g id="minder_node13" opacity="1"><g id="node_expander12" style="cursor: pointer;"><path id="kity_path_124" fill="white" stroke="gray" d="M275.5,301.5A6,6,0,1,1,263.5,301.5A6,6,0,1,1,275.5,301.5"></path><path id="kity_path_125" fill="none" stroke="gray" d="M265,301.5L274,301.5"></path></g><path id="node_outline13" fill="none" stroke="none" d="M280.5,290.5h152a5,5,0,0,1,5,5v12a5,5,0,0,1,-5,5h-152a5,5,0,0,1,-5,-5v-12a5,5,0,0,1,5,-5z" stroke-width="3"></path><g id="node_text13" fill="black"><text id="kity_text_121" text-rendering="inherit" font-size="12" dy=".8em" y="293.7000000476837" x="285.5">createCommandEncoder</text></g></g><g id="minder_node18"><g id="node_expander17" style="cursor: pointer;" display="none"><path id="kity_path_164" fill="white" stroke="gray" d="M469.5,353.5A6,6,0,1,1,457.5,353.5A6,6,0,1,1,469.5,353.5"></path><path id="kity_path_165" fill="none" stroke="gray"></path></g><path id="node_outline18" fill="none" stroke="none" d="M474.5,342.5h60a5,5,0,0,1,5,5v12a5,5,0,0,1,-5,5h-60a5,5,0,0,1,-5,-5v-12a5,5,0,0,1,5,-5z" stroke-width="3"></path><g id="node_text18" fill="black"><text id="kity_text_161" text-rendering="inherit" font-size="12" dy=".8em" y="345.7000000476837" x="479.5">计算管线</text></g></g><g id="minder_node9" opacity="1"><g id="node_expander8" style="cursor: pointer;"><path id="kity_path_92" fill="white" stroke="gray" d="M275.5,353.5A6,6,0,1,1,263.5,353.5A6,6,0,1,1,275.5,353.5"></path><path id="kity_path_93" fill="none" stroke="gray" d="M265,353.5L274,353.5"></path></g><path id="node_outline9" fill="none" stroke="none" d="M280.5,342.5h144a5,5,0,0,1,5,5v12a5,5,0,0,1,-5,5h-144a5,5,0,0,1,-5,-5v-12a5,5,0,0,1,5,-5z" stroke-width="3"></path><g id="node_text9" fill="black"><text id="kity_text_89" text-rendering="inherit" font-size="12" dy=".8em" y="345.7000000476837" x="285.5">createComputePipeline</text></g></g><g id="minder_node19"><g id="node_expander18" style="cursor: pointer;" display="none"><path id="kity_path_172" fill="white" stroke="gray" d="M405.5,405.5A6,6,0,1,1,393.5,405.5A6,6,0,1,1,405.5,405.5"></path><path id="kity_path_173" fill="none" stroke="gray"></path></g><path id="node_outline19" fill="none" stroke="none" d="M410.5,394.5h46a5,5,0,0,1,5,5v12a5,5,0,0,1,-5,5h-46a5,5,0,0,1,-5,-5v-12a5,5,0,0,1,5,-5z" stroke-width="3"></path><g id="node_text19" fill="black"><text id="kity_text_169" text-rendering="inherit" font-size="12" dy=".8em" y="397.7000000476837" x="415.5">缓冲区</text></g></g><g id="minder_node6"><g id="node_expander5" style="cursor: pointer;"><path id="kity_path_68" fill="white" stroke="gray" d="M275.5,405.5A6,6,0,1,1,263.5,405.5A6,6,0,1,1,275.5,405.5"></path><path id="kity_path_69" fill="none" stroke="gray" d="M265,405.5L274,405.5"></path></g><path id="node_outline6" fill="none" stroke="none" d="M280.5,394.5h80a5,5,0,0,1,5,5v12a5,5,0,0,1,-5,5h-80a5,5,0,0,1,-5,-5v-12a5,5,0,0,1,5,-5z" stroke-width="3"></path><g id="node_text6" fill="black"><text id="kity_text_65" text-rendering="inherit" font-size="12" dy=".8em" y="397.7000000476837" x="285.5">createBuffer</text></g></g><g id="minder_node20"><g id="node_expander19" style="cursor: pointer;" display="none"><path id="kity_path_180" fill="white" stroke="gray" d="M412.5,457.5A6,6,0,1,1,400.5,457.5A6,6,0,1,1,412.5,457.5"></path><path id="kity_path_181" fill="none" stroke="gray"></path></g><path id="node_outline20" fill="none" stroke="none" d="M417.5,446.5h59a5,5,0,0,1,5,5v12a5,5,0,0,1,-5,5h-59a5,5,0,0,1,-5,-5v-12a5,5,0,0,1,5,-5z" stroke-width="3"></path><g id="node_text20" fill="black"><text id="kity_text_177" text-rendering="inherit" font-size="12" dy=".8em" y="449.7000000476837" x="422.5">纹理对象</text></g></g><g id="minder_node7"><g id="node_expander6" style="cursor: pointer;"><path id="kity_path_76" fill="white" stroke="gray" d="M275.5,457.5A6,6,0,1,1,263.5,457.5A6,6,0,1,1,275.5,457.5"></path><path id="kity_path_77" fill="none" stroke="gray" d="M265,457.5L274,457.5"></path></g><path id="node_outline7" fill="none" stroke="none" d="M280.5,446.5h87a5,5,0,0,1,5,5v12a5,5,0,0,1,-5,5h-87a5,5,0,0,1,-5,-5v-12a5,5,0,0,1,5,-5z" stroke-width="3"></path><g id="node_text7" fill="black"><text id="kity_text_73" text-rendering="inherit" font-size="12" dy=".8em" y="449.7000000476837" x="285.5">createTexture</text></g></g><g id="minder_node12"><g id="node_expander11" style="cursor: pointer;" display="none"><path id="kity_path_116" fill="white" stroke="gray" d="M275.5,509.5A6,6,0,1,1,263.5,509.5A6,6,0,1,1,275.5,509.5"></path><path id="kity_path_117" fill="none" stroke="gray"></path></g><path id="node_outline12" fill="none" stroke="none" d="M280.5,498.5h19a5,5,0,0,1,5,5v12a5,5,0,0,1,-5,5h-19a5,5,0,0,1,-5,-5v-12a5,5,0,0,1,5,-5z" stroke-width="3"></path><g id="node_text12" fill="black"><text id="kity_text_113" text-rendering="inherit" font-size="12" dy=".8em" y="501.7000000476837" x="285.5">...</text></g></g></g></g></svg>