<svg id="kity_svg_6" xmlns="http://www.w3.org/2000/svg" xmlns:xlink="http://www.w3.org/1999/xlink" version="1.1" width="485" height="330" style="background: rgb(251, 251, 251); visibility: visible;" viewBox="0 0 485 330"><defs id="kity_defs_7"><linearGradient id="kity_linearGradient_17" x1="0" y1="0" x2="0" y2="1"><stop id="kity_stop_18" offset="0" stop-color="rgb(255, 255, 255)"></stop><stop id="kity_stop_19" offset="1" stop-color="rgb(204, 204, 204)"></stop></linearGradient><marker id="kity_marker_2" orient="auto" refX="6" refY="0" viewBox="-7 -7 14 14" markerWidth="7" markerHeight="7" markerUnits="userSpaceOnUse"><path id="kity_path_3" fill="rgb(115, 161, 191)" stroke="none" d="M6,0A6,6,0,1,1,-6,0A6,6,0,1,1,6,0"></path></marker></defs><g id="kity_g_8"><g id="minder1" text-rendering="optimize-speed"><g id="minder_connect_group1"><path id="kity_path_39" fill="none" stroke="rgb(115, 161, 191)" stroke-width="1" d="M106.00000535696745,165.5000044927001A138.5,132,0,0,1,244.50000535696745,33.5000044927001"></path><path id="kity_path_41" fill="none" stroke="rgb(115, 161, 191)" stroke-width="1" d="M106.00000535696745,165.5000044927001A138.5,66,0,0,1,244.50000535696745,99.5000044927001"></path><path id="kity_path_43" fill="none" stroke="rgb(115, 161, 191)" stroke-width="1" d="M106.00000535696745,165.5000044927001A138.5,0,0,0,1,244.50000535696745,165.5000044927001"></path><path id="kity_path_45" fill="none" stroke="rgb(115, 161, 191)" stroke-width="1" d="M106.00000535696745,165.5000044927001A138.5,66,0,0,0,244.50000535696745,231.5000044927001"></path><path id="kity_path_47" fill="none" stroke="rgb(115, 161, 191)" stroke-width="1" d="M106.00000535696745,165.5000044927001A138.5,132,0,0,0,244.50000535696745,297.5000044927001"></path><path id="kity_path_118" fill="none" stroke="rgb(115, 161, 191)" stroke-width="1" d="M332.50000535696745,33.5000044927001C352.50000535696745,33.5000044927001,352.50000535696745,33.5000044927001,372.50000535696745,33.5000044927001"></path><path id="kity_path_119" fill="none" stroke="rgb(115, 161, 191)" stroke-width="1" d="M357.50000535696745,99.5000044927001C377.50000535696745,99.5000044927001,377.50000535696745,99.5000044927001,397.50000535696745,99.5000044927001"></path><path id="kity_path_120" fill="none" stroke="rgb(115, 161, 191)" stroke-width="1" d="M348.50000535696745,165.5000044927001C368.50000535696745,165.5000044927001,368.50000535696745,165.5000044927001,388.50000535696745,165.5000044927001"></path><path id="kity_path_121" fill="none" stroke="rgb(115, 161, 191)" stroke-width="1" d="M347.50000535696745,231.5000044927001C367.50000535696745,231.5000044927001,367.50000535696745,231.5000044927001,387.50000535696745,231.5000044927001"></path><path id="kity_path_122" fill="none" stroke="rgb(115, 161, 191)" stroke-width="1" d="M347.50000535696745,297.5000044927001C367.50000535696745,297.5000044927001,367.50000535696745,297.5000044927001,387.50000535696745,297.5000044927001"></path></g><g id="minder_node1"><path id="node_outline1" fill="rgb(115, 161, 191)" stroke="rgb(115, 161, 191)" d="M25.50000535696745,145.5000044927001h161a5,5,0,0,1,5,5v30a5,5,0,0,1,-5,5h-161a5,5,0,0,1,-5,-5v-30a5,5,0,0,1,5,-5z" stroke-width="3"></path><g id="node_text1" fill="white"><text id="kity_text_22" text-rendering="inherit" font-size="16" dy=".8em" y="155.1000044569373" x="44.50000535696745">BufferGeometry</text></g></g><g id="kity_g_14" display="none"><path id="kity_path_15" fill="rgba(0, 92, 153, 0.5)" stroke="none" d="M-200.49999464303255,183.5000044927001h101v20h-101z"></path><path id="kity_path_16" fill="none" stroke="rgb(0, 76, 128)" d="M-200.49999464303255,183.5000044927001L-99.49999464303255,183.5000044927001" stroke-width="1"></path></g><g id="minder_node3" opacity="1"><g id="node_expander2" style="cursor: pointer;"><path id="kity_path_89" fill="white" stroke="gray" d="M245.50000826269388,33.50000252574682A6,6,0,1,1,233.50000826269388,33.50000252574682A6,6,0,1,1,245.50000826269388,33.50000252574682"></path><path id="kity_path_90" fill="none" stroke="gray" d="M235.00000826269388,33.50000252574682L244.00000826269388,33.50000252574682"></path></g><path id="node_outline3" fill="rgb(238, 243, 246)" stroke="rgb(115, 161, 191)" d="M249.50000866502523,20.500002525746822h80a3,3,0,0,1,3,3v20a3,3,0,0,1,-3,3h-80a3,3,0,0,1,-3,-3v-20a3,3,0,0,1,3,-3z" stroke-width="1"></path><g id="node_text3" fill="black"><text id="kity_text_59" text-rendering="inherit" font-size="14" dy=".8em" y="24.400002494454384" x="266.50000866502523">.scale()</text></g></g><g id="minder_node4" opacity="1"><g id="node_expander3" style="cursor: pointer;"><path id="kity_path_92" fill="white" stroke="gray" d="M245.50000826269388,99.50000350922346A6,6,0,1,1,233.50000826269388,99.50000350922346A6,6,0,1,1,245.50000826269388,99.50000350922346"></path><path id="kity_path_93" fill="none" stroke="gray" d="M235.00000826269388,99.50000350922346L244.00000826269388,99.50000350922346"></path></g><path id="node_outline4" fill="rgb(238, 243, 246)" stroke="rgb(115, 161, 191)" d="M249.50000866502523,86.50000350922346h105a3,3,0,0,1,3,3v20a3,3,0,0,1,-3,3h-105a3,3,0,0,1,-3,-3v-20a3,3,0,0,1,3,-3z" stroke-width="1"></path><g id="node_text4" fill="black"><text id="kity_text_61" text-rendering="inherit" font-size="14" dy=".8em" y="90.40000347793102" x="266.50000866502523">.translate()</text></g></g><g id="minder_node5" opacity="1"><g id="node_expander4" style="cursor: pointer;"><path id="kity_path_95" fill="white" stroke="gray" d="M245.50000826269388,165.5000044927001A6,6,0,1,1,233.50000826269388,165.5000044927001A6,6,0,1,1,245.50000826269388,165.5000044927001"></path><path id="kity_path_96" fill="none" stroke="gray" d="M235.00000826269388,165.5000044927001L244.00000826269388,165.5000044927001"></path></g><path id="node_outline5" fill="rgb(238, 243, 246)" stroke="rgb(115, 161, 191)" d="M249.50000866502523,152.5000044927001h96a3,3,0,0,1,3,3v20a3,3,0,0,1,-3,3h-96a3,3,0,0,1,-3,-3v-20a3,3,0,0,1,3,-3z" stroke-width="1"></path><g id="node_text5" fill="black"><text id="kity_text_63" text-rendering="inherit" font-size="14" dy=".8em" y="156.40000446140766" x="266.50000866502523">.rotateX()</text></g></g><g id="minder_node6" opacity="1"><g id="node_expander5" style="cursor: pointer;"><path id="kity_path_98" fill="white" stroke="gray" d="M245.50000826269388,231.50000547617674A6,6,0,1,1,233.50000826269388,231.50000547617674A6,6,0,1,1,245.50000826269388,231.50000547617674"></path><path id="kity_path_99" fill="none" stroke="gray" d="M235.00000826269388,231.50000547617674L244.00000826269388,231.50000547617674"></path></g><path id="node_outline6" fill="rgb(238, 243, 246)" stroke="rgb(115, 161, 191)" d="M249.50000866502523,218.50000547617674h95a3,3,0,0,1,3,3v20a3,3,0,0,1,-3,3h-95a3,3,0,0,1,-3,-3v-20a3,3,0,0,1,3,-3z" stroke-width="1"></path><g id="node_text6" fill="black"><text id="kity_text_65" text-rendering="inherit" font-size="14" dy=".8em" y="222.4000054448843" x="266.50000866502523">.rotateY()</text></g></g><g id="minder_node7" opacity="1"><g id="node_expander6" style="cursor: pointer;"><path id="kity_path_101" fill="white" stroke="gray" d="M245.50000826269388,297.5000064596534A6,6,0,1,1,233.50000826269388,297.5000064596534A6,6,0,1,1,245.50000826269388,297.5000064596534"></path><path id="kity_path_102" fill="none" stroke="gray" d="M235.00000826269388,297.5000064596534L244.00000826269388,297.5000064596534"></path></g><path id="node_outline7" fill="rgb(238, 243, 246)" stroke="rgb(115, 161, 191)" d="M249.50000866502523,284.5000064596534h95a3,3,0,0,1,3,3v20a3,3,0,0,1,-3,3h-95a3,3,0,0,1,-3,-3v-20a3,3,0,0,1,3,-3z" stroke-width="1"></path><g id="node_text7" fill="black"><text id="kity_text_67" text-rendering="inherit" font-size="14" dy=".8em" y="288.40000642836094" x="266.50000866502523">.rotateZ()</text></g></g><g id="kity_g_12" display="none"><path id="kity_path_13" fill="none" stroke="rgb(66, 94, 112)" d="M-197.49999464303255,152.5000044927001h95a3,3,0,0,1,3,3v20a3,3,0,0,1,-3,3h-95a3,3,0,0,1,-3,-3v-20a3,3,0,0,1,3,-3z" stroke-width="5"></path></g><g id="minder_node8" opacity="1"><g id="node_expander7" style="cursor: pointer;" display="none"><path id="kity_path_104" fill="white" stroke="gray" d="M372.50001015514135,33.50000252574682A6,6,0,1,1,360.50001015514135,33.50000252574682A6,6,0,1,1,372.50001015514135,33.50000252574682"></path><path id="kity_path_105" fill="none" stroke="gray"></path></g><path id="node_outline8" fill="none" stroke="none" d="M377.50001039355993,22.500002525746822h36a5,5,0,0,1,5,5v12a5,5,0,0,1,-5,5h-36a5,5,0,0,1,-5,-5v-12a5,5,0,0,1,5,-5z" stroke-width="3"></path><g id="node_text8" fill="black"><text id="kity_text_69" text-rendering="inherit" font-size="12" dy=".8em" y="25.700002498924732" x="382.50001039355993">缩放</text></g></g><g id="minder_node9" opacity="1"><g id="node_expander8" style="cursor: pointer;" display="none"><path id="kity_path_107" fill="white" stroke="gray" d="M397.5000105276704,99.50000350922346A6,6,0,1,1,385.5000105276704,99.50000350922346A6,6,0,1,1,397.5000105276704,99.50000350922346"></path><path id="kity_path_108" fill="none" stroke="gray"></path></g><path id="node_outline9" fill="none" stroke="none" d="M402.50001076608896,88.50000350922346h34a5,5,0,0,1,5,5v12a5,5,0,0,1,-5,5h-34a5,5,0,0,1,-5,-5v-12a5,5,0,0,1,5,-5z" stroke-width="3"></path><g id="node_text9" fill="black"><text id="kity_text_71" text-rendering="inherit" font-size="12" dy=".8em" y="91.70000348240137" x="407.50001076608896">平移</text></g></g><g id="minder_node10" opacity="1"><g id="node_expander9" style="cursor: pointer;" display="none"><path id="kity_path_110" fill="white" stroke="gray" d="M388.50001039355993,165.5000044927001A6,6,0,1,1,376.50001039355993,165.5000044927001A6,6,0,1,1,388.50001039355993,165.5000044927001"></path><path id="kity_path_111" fill="none" stroke="gray"></path></g><path id="node_outline10" fill="none" stroke="none" d="M393.5000106319785,154.5000044927001h67a5,5,0,0,1,5,5v12a5,5,0,0,1,-5,5h-67a5,5,0,0,1,-5,-5v-12a5,5,0,0,1,5,-5z" stroke-width="3"></path><g id="node_text10" fill="black"><text id="kity_text_73" text-rendering="inherit" font-size="12" dy=".8em" y="157.700004465878" x="398.5000106319785">绕X轴旋转</text></g></g><g id="minder_node11" opacity="1"><g id="node_expander10" style="cursor: pointer;" display="none"><path id="kity_path_113" fill="white" stroke="gray" d="M387.50001037865877,231.50000547617674A6,6,0,1,1,375.50001037865877,231.50000547617674A6,6,0,1,1,387.50001037865877,231.50000547617674"></path><path id="kity_path_114" fill="none" stroke="gray"></path></g><path id="node_outline11" fill="none" stroke="none" d="M392.50001061707735,220.50000547617674h67a5,5,0,0,1,5,5v12a5,5,0,0,1,-5,5h-67a5,5,0,0,1,-5,-5v-12a5,5,0,0,1,5,-5z" stroke-width="3"></path><g id="node_text11" fill="black"><text id="kity_text_75" text-rendering="inherit" font-size="12" dy=".8em" y="223.70000544935465" x="397.50001061707735">绕Y轴旋转</text></g></g><g id="minder_node12" opacity="1"><g id="node_expander11" style="cursor: pointer;" display="none"><path id="kity_path_116" fill="white" stroke="gray" d="M387.50001037865877,297.5000064596534A6,6,0,1,1,375.50001037865877,297.5000064596534A6,6,0,1,1,387.50001037865877,297.5000064596534"></path><path id="kity_path_117" fill="none" stroke="gray"></path></g><path id="node_outline12" fill="none" stroke="none" d="M392.50001061707735,286.5000064596534h67a5,5,0,0,1,5,5v12a5,5,0,0,1,-5,5h-67a5,5,0,0,1,-5,-5v-12a5,5,0,0,1,5,-5z" stroke-width="3"></path><g id="node_text12" fill="black"><text id="kity_text_77" text-rendering="inherit" font-size="12" dy=".8em" y="289.7000064328313" x="397.50001061707735">绕Z轴旋转</text></g></g></g></g></svg>