<svg id="kity_svg_6" xmlns="http://www.w3.org/2000/svg" xmlns:xlink="http://www.w3.org/1999/xlink" version="1.1" width="691" height="334" style="background: rgb(251, 251, 251); visibility: visible;" viewBox="0 0 691 334"><defs id="kity_defs_7"><linearGradient id="kity_linearGradient_17" x1="0" y1="0" x2="0" y2="1"><stop id="kity_stop_18" offset="0" stop-color="rgb(255, 255, 255)"></stop><stop id="kity_stop_19" offset="1" stop-color="rgb(204, 204, 204)"></stop></linearGradient><marker id="kity_marker_2" orient="auto" refX="6" refY="0" viewBox="-7 -7 14 14" markerWidth="7" markerHeight="7" markerUnits="userSpaceOnUse"><path id="kity_path_3" fill="rgb(115, 191, 118)" stroke="none" d="M6,0A6,6,0,1,1,-6,0A6,6,0,1,1,6,0"></path></marker></defs><g id="kity_g_8"><g id="minder1" text-rendering="optimize-speed"><g id="minder_connect_group1"><path id="kity_path_986" fill="none" stroke="rgb(115, 191, 118)" stroke-width="1" d="M113.00000631064177,139.50000452250242A77.5,77,0,0,1,190.50000631064177,62.50000452250242"></path><path id="kity_path_1002" fill="none" stroke="rgb(115, 191, 118)" stroke-width="1" d="M113.00000631064177,139.50000452250242A77.5,78,0,0,0,190.50000631064177,217.50000452250242"></path><path id="kity_path_1231" fill="none" stroke="rgb(115, 191, 118)" stroke-width="1" d="M319.50000631064177,62.50000452250242C327.50000631064177,62.50000452250242,327.50000631064177,29.500004522502422,335.50000631064177,29.500004522502422"></path><path id="kity_path_1232" fill="none" stroke="rgb(115, 191, 118)" stroke-width="1" d="M361.50000631064177,60.50000452250242C369.50000631064177,60.50000452250242,369.50000631064177,60.50000452250242,377.50000631064177,60.50000452250242"></path><path id="kity_path_1233" fill="none" stroke="rgb(115, 191, 118)" stroke-width="1" d="M319.50000631064177,62.50000452250242C327.50000631064177,62.50000452250242,327.50000631064177,60.50000452250242,335.50000631064177,60.50000452250242"></path><path id="kity_path_1234" fill="none" stroke="rgb(115, 191, 118)" stroke-width="1" d="M527.5000063106418,96.50000452250242C535.5000063106418,96.50000452250242,535.5000063106418,96.50000452250242,543.5000063106418,96.50000452250242"></path><path id="kity_path_1235" fill="none" stroke="rgb(115, 191, 118)" stroke-width="1" d="M361.50000631064177,96.50000452250242C369.50000631064177,96.50000452250242,369.50000631064177,96.50000452250242,377.50000631064177,96.50000452250242"></path><path id="kity_path_1236" fill="none" stroke="rgb(115, 191, 118)" stroke-width="1" d="M319.50000631064177,62.50000452250242C327.50000631064177,62.50000452250242,327.50000631064177,96.50000452250242,335.50000631064177,96.50000452250242"></path><path id="kity_path_1237" fill="none" stroke="rgb(115, 191, 118)" stroke-width="1" d="M443.50000631064177,168.50000452250242C451.50000631064177,168.50000452250242,451.50000631064177,135.50000452250242,459.50000631064177,135.50000452250242"></path><path id="kity_path_1238" fill="none" stroke="rgb(115, 191, 118)" stroke-width="1" d="M485.50000631064177,166.50000452250242C493.50000631064177,166.50000452250242,493.50000631064177,166.50000452250242,501.50000631064177,166.50000452250242"></path><path id="kity_path_1239" fill="none" stroke="rgb(115, 191, 118)" stroke-width="1" d="M443.50000631064177,168.50000452250242C451.50000631064177,168.50000452250242,451.50000631064177,166.50000452250242,459.50000631064177,166.50000452250242"></path><path id="kity_path_1240" fill="none" stroke="rgb(115, 191, 118)" stroke-width="1" d="M485.50000631064177,202.50000452250242C493.50000631064177,202.50000452250242,493.50000631064177,202.50000452250242,501.50000631064177,202.50000452250242"></path><path id="kity_path_1241" fill="none" stroke="rgb(115, 191, 118)" stroke-width="1" d="M443.50000631064177,168.50000452250242C451.50000631064177,168.50000452250242,451.50000631064177,202.50000452250242,459.50000631064177,202.50000452250242"></path><path id="kity_path_1242" fill="none" stroke="rgb(115, 191, 118)" stroke-width="1" d="M332.50000631064177,217.50000452250242C340.50000631064177,217.50000452250242,340.50000631064177,168.50000452250242,348.50000631064177,168.50000452250242"></path><path id="kity_path_1243" fill="none" stroke="rgb(115, 191, 118)" stroke-width="1" d="M443.50000631064177,266.5000045225024C451.50000631064177,266.5000045225024,451.50000631064177,233.50000452250242,459.50000631064177,233.50000452250242"></path><path id="kity_path_1244" fill="none" stroke="rgb(115, 191, 118)" stroke-width="1" d="M485.50000631064177,264.5000045225024C493.50000631064177,264.5000045225024,493.50000631064177,264.5000045225024,501.50000631064177,264.5000045225024"></path><path id="kity_path_1245" fill="none" stroke="rgb(115, 191, 118)" stroke-width="1" d="M443.50000631064177,266.5000045225024C451.50000631064177,266.5000045225024,451.50000631064177,264.5000045225024,459.50000631064177,264.5000045225024"></path><path id="kity_path_1246" fill="none" stroke="rgb(115, 191, 118)" stroke-width="1" d="M485.50000631064177,300.5000045225024C493.50000631064177,300.5000045225024,493.50000631064177,300.5000045225024,501.50000631064177,300.5000045225024"></path><path id="kity_path_1247" fill="none" stroke="rgb(115, 191, 118)" stroke-width="1" d="M443.50000631064177,266.5000045225024C451.50000631064177,266.5000045225024,451.50000631064177,300.5000045225024,459.50000631064177,300.5000045225024"></path><path id="kity_path_1248" fill="none" stroke="rgb(115, 191, 118)" stroke-width="1" d="M332.50000631064177,217.50000452250242C340.50000631064177,217.50000452250242,340.50000631064177,266.5000045225024,348.50000631064177,266.5000045225024"></path></g><g id="minder_node1"><path id="node_outline1" fill="rgb(115, 191, 118)" stroke="rgb(115, 191, 118)" d="M25.500006310641766,125.50000452250242h175a5,5,0,0,1,5,5v18a5,5,0,0,1,-5,5h-175a5,5,0,0,1,-5,-5v-18a5,5,0,0,1,5,-5z" stroke-width="3"></path><g id="node_text1" fill="white"><text id="kity_text_22" text-rendering="inherit" font-size="16" dy=".8em" y="129.10000448673964" x="32.500006310641766">样条曲线、贝赛尔曲线</text></g><a id="kity_a_537" xlink:href="http://www.yanhuangxueyuan.com/threejs/docs/index.html#api/zh/core/Geometry" target="_blank" xlink:title="http://www.yanhuangxueyuan.com/threejs/docs/index.html#api/zh/core/Geometry" style="cursor: pointer;" display="none"><path id="kity_path_539" fill="rgba(255, 255, 255, 0)" stroke="none" d="M34.500006310641766,133.50000452250242h16a4,4,0,0,1,4,4v14a4,4,0,0,1,-4,4h-16a4,4,0,0,1,-4,-4v-14a4,4,0,0,1,4,-4z"></path><path id="kity_path_538" fill="#666" stroke="none" d="M49.11400631064177,149.7240045225024h-1.278c-1.668,0,-3.07,-1.07,-3.599,-2.556h4.877c0.707,0,1.278,-0.571,1.278,-1.278V143.33400452250243c0,-0.707,-0.571,-1.278,-1.278,-1.278h-4.877C44.766006310641764,140.57100452250242,46.168006310641765,139.50000452250242,47.836006310641764,139.50000452250242h1.278c2.116,0,3.834,1.716,3.834,3.834V145.8900045225024C52.948006310641766,148.00800452250243,51.23000631064177,149.7240045225024,49.11400631064177,149.7240045225024zM37.61200631064177,144.61200452250242c0,-0.707,0.573,-1.278,1.278,-1.278h7.668c0.707,0,1.278,0.571,1.278,1.278S47.265006310641766,145.8900045225024,46.558006310641765,145.8900045225024H38.890006310641766C38.18500631064177,145.8900045225024,37.61200631064177,145.3190045225024,37.61200631064177,144.61200452250242zM35.05600631064176,143.33400452250243V145.8900045225024c0,0.707,0.573,1.278,1.278,1.278h4.877c-0.528,1.486,-1.932,2.556,-3.599,2.556H36.33400631064177C34.21600631064177,149.7240045225024,32.500006310641766,148.00800452250243,32.500006310641766,145.8900045225024V143.33400452250243C32.500006310641766,141.21600452250243,34.21600631064177,139.50000452250242,36.33400631064177,139.50000452250242h1.278c1.667,0,3.071,1.071,3.599,2.556H36.33400631064177C35.62900631064176,142.05600452250243,35.05600631064176,142.62700452250243,35.05600631064176,143.33400452250243z"></path></a></g><g id="kity_g_14" display="none"><path id="kity_path_15" fill="none" stroke="none" d="M32.500006310641766,139.50000452250242h0v0h0z"></path><path id="kity_path_16" fill="none" stroke="none"></path></g><g id="minder_node97" opacity="1"><g id="node_expander103" style="cursor: pointer;"><path id="kity_path_1147" fill="white" stroke="gray" d="M191.50000859051943,62.50000337511301A6,6,0,1,1,179.50000859051943,62.50000337511301A6,6,0,1,1,191.50000859051943,62.50000337511301"></path><path id="kity_path_1148" fill="none" stroke="gray" d="M181.00000859051943,62.50000337511301L190.00000859051943,62.50000337511301"></path></g><path id="node_outline104" fill="rgb(238, 246, 238)" stroke="rgb(115, 191, 118)" d="M195.50000899285078,45.50000337511301h121a3,3,0,0,1,3,3v28a3,3,0,0,1,-3,3h-121a3,3,0,0,1,-3,-3v-28a3,3,0,0,1,3,-3z" stroke-width="1"></path><g id="node_text104" fill="black"><text id="kity_text_1050" text-rendering="inherit" font-size="14" dy=".8em" y="53.40000334382057" x="212.50000899285078">样条曲线</text></g><a id="kity_a_1085" xlink:href="https://baike.baidu.com/item/%E6%A0%B7%E6%9D%A1%E6%9B%B2%E7%BA%BF/6418744?fr=aladdin" target="_blank" xlink:title="https://baike.baidu.com/item/%E6%A0%B7%E6%9D%A1%E6%9B%B2%E7%BA%BF/6418744?fr=aladdin" style="cursor: pointer;"><path id="kity_path_1087" fill="rgba(255, 255, 255, 0)" stroke="none" d="M279.50000996142626,51.500003300607204h16a4,4,0,0,1,4,4v14a4,4,0,0,1,-4,4h-16a4,4,0,0,1,-4,-4v-14a4,4,0,0,1,4,-4z"></path><path id="kity_path_1086" fill="#666" stroke="none" d="M294.11400996142623,67.72400330060721h-1.278c-1.668,0,-3.07,-1.07,-3.599,-2.556h4.877c0.707,0,1.278,-0.571,1.278,-1.278V61.33400330060721c0,-0.707,-0.571,-1.278,-1.278,-1.278h-4.877C289.7660099614263,58.5710033006072,291.16800996142626,57.500003300607204,292.83600996142627,57.500003300607204h1.278c2.116,0,3.834,1.716,3.834,3.834V63.890003300607205C297.94800996142624,66.0080033006072,296.2300099614263,67.72400330060721,294.11400996142623,67.72400330060721zM282.6120099614263,62.612003300607206c0,-0.707,0.573,-1.278,1.278,-1.278h7.668c0.707,0,1.278,0.571,1.278,1.278S292.26500996142624,63.890003300607205,291.55800996142625,63.890003300607205H283.89000996142624C283.18500996142626,63.890003300607205,282.6120099614263,63.31900330060721,282.6120099614263,62.612003300607206zM280.05600996142624,61.33400330060721V63.890003300607205c0,0.707,0.573,1.278,1.278,1.278h4.877c-0.528,1.486,-1.932,2.556,-3.599,2.556H281.33400996142626C279.21600996142627,67.72400330060721,277.50000996142626,66.0080033006072,277.50000996142626,63.890003300607205V61.33400330060721C277.50000996142626,59.216003300607206,279.21600996142627,57.500003300607204,281.33400996142626,57.500003300607204h1.278c1.667,0,3.071,1.071,3.599,2.556H281.33400996142626C280.6290099614263,60.0560033006072,280.05600996142624,60.62700330060721,280.05600996142624,61.33400330060721z"></path></a></g><g id="minder_node105" opacity="1"><g id="node_expander117" style="cursor: pointer;"><path id="kity_path_1189" fill="white" stroke="gray" d="M191.50000859051943,217.500005684793A6,6,0,1,1,179.50000859051943,217.500005684793A6,6,0,1,1,191.50000859051943,217.500005684793"></path><path id="kity_path_1190" fill="none" stroke="gray" d="M181.00000859051943,217.500005684793L190.00000859051943,217.500005684793"></path></g><path id="node_outline118" fill="rgb(238, 246, 238)" stroke="rgb(115, 191, 118)" d="M195.50000899285078,200.500005684793h134a3,3,0,0,1,3,3v28a3,3,0,0,1,-3,3h-134a3,3,0,0,1,-3,-3v-28a3,3,0,0,1,3,-3z" stroke-width="1"></path><g id="node_text118" fill="black"><text id="kity_text_1078" text-rendering="inherit" font-size="14" dy=".8em" y="208.40000565350056" x="212.50000899285078">贝赛尔曲线</text></g><a id="kity_a_1100" xlink:href="https://baike.baidu.com/item/%E8%B4%9D%E5%A1%9E%E5%B0%94%E6%9B%B2%E7%BA%BF/1091769?fromtitle=%E8%B4%9D%E8%B5%9B%E5%B0%94%E6%9B%B2%E7%BA%BF&amp;fromid=8295355&amp;fr=aladdin" target="_blank" xlink:title="https://baike.baidu.com/item/%E8%B4%9D%E5%A1%9E%E5%B0%94%E6%9B%B2%E7%BA%BF/1091769?fromtitle=%E8%B4%9D%E8%B5%9B%E5%B0%94%E6%9B%B2%E7%BA%BF&amp;fromid=8295355&amp;fr=aladdin" style="cursor: pointer;"><path id="kity_path_1102" fill="rgba(255, 255, 255, 0)" stroke="none" d="M292.50001015514135,206.5000056102872h16a4,4,0,0,1,4,4v14a4,4,0,0,1,-4,4h-16a4,4,0,0,1,-4,-4v-14a4,4,0,0,1,4,-4z"></path><path id="kity_path_1101" fill="#666" stroke="none" d="M307.11401015514133,222.72400561028718h-1.278c-1.668,0,-3.07,-1.07,-3.599,-2.556h4.877c0.707,0,1.278,-0.571,1.278,-1.278V216.3340056102872c0,-0.707,-0.571,-1.278,-1.278,-1.278h-4.877C302.7660101551414,213.5710056102872,304.16801015514136,212.5000056102872,305.83601015514137,212.5000056102872h1.278c2.116,0,3.834,1.716,3.834,3.834V218.89000561028718C310.94801015514133,221.0080056102872,309.2300101551414,222.72400561028718,307.11401015514133,222.72400561028718zM295.6120101551414,217.61200561028718c0,-0.707,0.573,-1.278,1.278,-1.278h7.668c0.707,0,1.278,0.571,1.278,1.278S305.26501015514134,218.89000561028718,304.55801015514135,218.89000561028718H296.89001015514134C296.18501015514136,218.89000561028718,295.6120101551414,218.31900561028718,295.6120101551414,217.61200561028718zM293.05601015514134,216.3340056102872V218.89000561028718c0,0.707,0.573,1.278,1.278,1.278h4.877c-0.528,1.486,-1.932,2.556,-3.599,2.556H294.33401015514136C292.21601015514136,222.72400561028718,290.50001015514135,221.0080056102872,290.50001015514135,218.89000561028718V216.3340056102872C290.50001015514135,214.2160056102872,292.21601015514136,212.5000056102872,294.33401015514136,212.5000056102872h1.278c1.667,0,3.071,1.071,3.599,2.556H294.33401015514136C293.6290101551414,215.0560056102872,293.05601015514134,215.6270056102872,293.05601015514134,216.3340056102872z"></path></a></g><g id="kity_g_12" display="none"><path id="kity_path_13" fill="none" stroke="rgb(71, 66, 112)" d="M25.500006310641766,125.50000452250242h47a5,5,0,0,1,5,5v18a5,5,0,0,1,-5,5h-47a5,5,0,0,1,-5,-5v-18a5,5,0,0,1,5,-5z" stroke-width="5"></path></g><g id="minder_node98"><g id="node_expander96" style="cursor: pointer;" display="none"><path id="kity_path_1126" fill="white" stroke="gray" d="M335.50001073628664,29.50000288337469A6,6,0,1,1,323.50001073628664,29.50000288337469A6,6,0,1,1,335.50001073628664,29.50000288337469"></path><path id="kity_path_1127" fill="none" stroke="gray"></path></g><path id="node_outline97" fill="none" stroke="none" d="M340.5000109001994,20.50000288337469h182a5,5,0,0,1,5,5v8a5,5,0,0,1,-5,5h-182a5,5,0,0,1,-5,-5v-8a5,5,0,0,1,5,-5z"></path><g id="node_text97" fill="black"><text id="kity_text_1036" text-rendering="inherit" font-size="12" dy=".8em" y="21.7000028565526" x="340.5000109001994">经过一系列点创建平滑的样条曲线</text></g></g><g id="minder_node101"><g id="node_expander98" style="cursor: pointer;" display="none"><path id="kity_path_1132" fill="white" stroke="gray" d="M377.5000113621354,60.50000334531069A6,6,0,1,1,365.5000113621354,60.50000334531069A6,6,0,1,1,377.5000113621354,60.50000334531069"></path><path id="kity_path_1133" fill="none" stroke="gray"></path></g><path id="node_outline99" fill="none" stroke="none" d="M382.5000115260482,46.50000334531069h98a5,5,0,0,1,5,5v18a5,5,0,0,1,-5,5h-98a5,5,0,0,1,-5,-5v-18a5,5,0,0,1,5,-5z" stroke-width="3"></path><g id="node_text99" fill="black"><text id="kity_text_1040" text-rendering="inherit" font-size="12" dy=".8em" y="52.7000033184886" x="382.5000115260482">SplineCurve</text></g><a id="kity_a_1079" xlink:href="http://www.yanhuangxueyuan.com/threejs/docs/index.html#api/zh/extras/curves/SplineCurve" target="_blank" xlink:title="http://www.yanhuangxueyuan.com/threejs/docs/index.html#api/zh/extras/curves/SplineCurve" style="cursor: pointer;"><path id="kity_path_1081" fill="rgba(255, 255, 255, 0)" stroke="none" d="M460.50001265853643,49.50000327080488h16a4,4,0,0,1,4,4v14a4,4,0,0,1,-4,4h-16a4,4,0,0,1,-4,-4v-14a4,4,0,0,1,4,-4z"></path><path id="kity_path_1080" fill="#666" stroke="none" d="M475.1140126585364,65.72400327080489h-1.278c-1.668,0,-3.07,-1.07,-3.599,-2.556h4.877c0.707,0,1.278,-0.571,1.278,-1.278V59.334003270804885c0,-0.707,-0.571,-1.278,-1.278,-1.278h-4.877C470.76601265853645,56.57100327080488,472.16801265853644,55.50000327080488,473.83601265853645,55.50000327080488h1.278c2.116,0,3.834,1.716,3.834,3.834V61.89000327080488C478.9480126585364,64.00800327080488,477.23001265853645,65.72400327080489,475.1140126585364,65.72400327080489zM463.61201265853646,60.612003270804884c0,-0.707,0.573,-1.278,1.278,-1.278h7.668c0.707,0,1.278,0.571,1.278,1.278S473.2650126585364,61.89000327080488,472.5580126585364,61.89000327080488H464.8900126585364C464.18501265853644,61.89000327080488,463.61201265853646,61.319003270804885,463.61201265853646,60.612003270804884zM461.0560126585364,59.334003270804885V61.89000327080488c0,0.707,0.573,1.278,1.278,1.278h4.877c-0.528,1.486,-1.932,2.556,-3.599,2.556H462.33401265853644C460.21601265853644,65.72400327080489,458.50001265853643,64.00800327080488,458.50001265853643,61.89000327080488V59.334003270804885C458.50001265853643,57.21600327080488,460.21601265853644,55.50000327080488,462.33401265853644,55.50000327080488h1.278c1.667,0,3.071,1.071,3.599,2.556H462.33401265853644C461.62901265853645,58.05600327080488,461.0560126585364,58.627003270804884,461.0560126585364,59.334003270804885z"></path></a></g><g id="minder_node99"><g id="node_expander99" style="cursor: pointer;"><path id="kity_path_1135" fill="white" stroke="gray" d="M335.50001073628664,60.50000334531069A6,6,0,1,1,323.50001073628664,60.50000334531069A6,6,0,1,1,335.50001073628664,60.50000334531069"></path><path id="kity_path_1136" fill="none" stroke="gray" d="M325.00001073628664,60.50000334531069L334.00001073628664,60.50000334531069"></path></g><path id="node_outline100" fill="none" stroke="none" d="M340.5000109001994,51.50000334531069h16a5,5,0,0,1,5,5v8a5,5,0,0,1,-5,5h-16a5,5,0,0,1,-5,-5v-8a5,5,0,0,1,5,-5z"></path><g id="node_text100" fill="black"><text id="kity_text_1042" text-rendering="inherit" font-size="12" dy=".8em" y="52.7000033184886" x="340.5000109001994">2D</text></g></g><g id="minder_node104"><g id="node_expander100" style="cursor: pointer;" display="none"><path id="kity_path_1138" fill="white" stroke="gray" d="M543.5000138357282,96.50000388175249A6,6,0,1,1,531.5000138357282,96.50000388175249A6,6,0,1,1,543.5000138357282,96.50000388175249"></path><path id="kity_path_1139" fill="none" stroke="gray"></path></g><path id="node_outline101" fill="none" stroke="none" d="M548.5000139996409,87.50000388175249h101a5,5,0,0,1,5,5v8a5,5,0,0,1,-5,5h-101a5,5,0,0,1,-5,-5v-8a5,5,0,0,1,5,-5z"></path><g id="node_text101" fill="black"><text id="kity_text_1044" text-rendering="inherit" font-size="12" dy=".8em" y="88.7000038549304" x="548.5000139996409">Catmull-Rom算法</text></g></g><g id="minder_node103"><g id="node_expander101" style="cursor: pointer;"><path id="kity_path_1141" fill="white" stroke="gray" d="M377.5000113621354,96.50000388175249A6,6,0,1,1,365.5000113621354,96.50000388175249A6,6,0,1,1,377.5000113621354,96.50000388175249"></path><path id="kity_path_1142" fill="none" stroke="gray" d="M367.0000113621354,96.50000388175249L376.0000113621354,96.50000388175249"></path></g><path id="node_outline102" fill="none" stroke="none" d="M382.5000115260482,82.50000388175249h140a5,5,0,0,1,5,5v18a5,5,0,0,1,-5,5h-140a5,5,0,0,1,-5,-5v-18a5,5,0,0,1,5,-5z" stroke-width="3"></path><g id="node_text102" fill="black"><text id="kity_text_1046" text-rendering="inherit" font-size="12" dy=".8em" y="88.7000038549304" x="382.5000115260482">CatmullRomCurve3</text></g><a id="kity_a_1082" xlink:href="http://www.yanhuangxueyuan.com/threejs/docs/index.html#api/zh/extras/curves/CatmullRomCurve3" target="_blank" xlink:title="http://www.yanhuangxueyuan.com/threejs/docs/index.html#api/zh/extras/curves/CatmullRomCurve3" style="cursor: pointer;"><path id="kity_path_1084" fill="rgba(255, 255, 255, 0)" stroke="none" d="M502.5000132843852,85.50000380724669h16a4,4,0,0,1,4,4v14a4,4,0,0,1,-4,4h-16a4,4,0,0,1,-4,-4v-14a4,4,0,0,1,4,-4z"></path><path id="kity_path_1083" fill="#666" stroke="none" d="M517.1140132843852,101.72400380724669h-1.278c-1.668,0,-3.07,-1.07,-3.599,-2.556h4.877c0.707,0,1.278,-0.571,1.278,-1.278V95.33400380724669c0,-0.707,-0.571,-1.278,-1.278,-1.278h-4.877C512.7660132843852,92.57100380724668,514.1680132843852,91.50000380724669,515.8360132843852,91.50000380724669h1.278c2.116,0,3.834,1.716,3.834,3.834V97.89000380724669C520.9480132843852,100.00800380724668,519.2300132843852,101.72400380724669,517.1140132843852,101.72400380724669zM505.6120132843852,96.61200380724668c0,-0.707,0.573,-1.278,1.278,-1.278h7.668c0.707,0,1.278,0.571,1.278,1.278S515.2650132843852,97.89000380724669,514.5580132843852,97.89000380724669H506.8900132843852C506.1850132843852,97.89000380724669,505.6120132843852,97.31900380724669,505.6120132843852,96.61200380724668zM503.0560132843852,95.33400380724669V97.89000380724669c0,0.707,0.573,1.278,1.278,1.278h4.877c-0.528,1.486,-1.932,2.556,-3.599,2.556H504.3340132843852C502.2160132843852,101.72400380724669,500.5000132843852,100.00800380724668,500.5000132843852,97.89000380724669V95.33400380724669C500.5000132843852,93.21600380724668,502.2160132843852,91.50000380724669,504.3340132843852,91.50000380724669h1.278c1.667,0,3.071,1.071,3.599,2.556H504.3340132843852C503.6290132843852,94.05600380724668,503.0560132843852,94.62700380724668,503.0560132843852,95.33400380724669z"></path></a></g><g id="minder_node102"><g id="node_expander102" style="cursor: pointer;"><path id="kity_path_1144" fill="white" stroke="gray" d="M335.50001073628664,96.50000388175249A6,6,0,1,1,323.50001073628664,96.50000388175249A6,6,0,1,1,335.50001073628664,96.50000388175249"></path><path id="kity_path_1145" fill="none" stroke="gray" d="M325.00001073628664,96.50000388175249L334.00001073628664,96.50000388175249"></path></g><path id="node_outline103" fill="none" stroke="none" d="M340.5000109001994,87.50000388175249h16a5,5,0,0,1,5,5v8a5,5,0,0,1,-5,5h-16a5,5,0,0,1,-5,-5v-8a5,5,0,0,1,5,-5z"></path><g id="node_text103" fill="black"><text id="kity_text_1048" text-rendering="inherit" font-size="12" dy=".8em" y="88.7000038549304" x="340.5000109001994">3D</text></g></g><g id="minder_node107"><g id="node_expander104" style="cursor: pointer;" display="none"><path id="kity_path_1150" fill="white" stroke="gray" d="M459.5000125840306,135.50000446289778A6,6,0,1,1,447.5000125840306,135.50000446289778A6,6,0,1,1,459.5000125840306,135.50000446289778"></path><path id="kity_path_1151" fill="none" stroke="gray"></path></g><path id="node_outline105" fill="none" stroke="none" d="M464.5000127479434,126.50000446289778h153a5,5,0,0,1,5,5v8a5,5,0,0,1,-5,5h-153a5,5,0,0,1,-5,-5v-8a5,5,0,0,1,5,-5z"></path><g id="node_text105" fill="black"><text id="kity_text_1052" text-rendering="inherit" font-size="12" dy=".8em" y="127.70000443607569" x="464.5000127479434">起点、终点和1个控制点定义</text></g></g><g id="minder_node110"><g id="node_expander106" style="cursor: pointer;" display="none"><path id="kity_path_1156" fill="white" stroke="gray" d="M501.5000132098794,166.50000492483377A6,6,0,1,1,489.5000132098794,166.50000492483377A6,6,0,1,1,501.5000132098794,166.50000492483377"></path><path id="kity_path_1157" fill="none" stroke="gray"></path></g><path id="node_outline107" fill="none" stroke="none" d="M506.50001337379217,152.50000492483377h154a5,5,0,0,1,5,5v18a5,5,0,0,1,-5,5h-154a5,5,0,0,1,-5,-5v-18a5,5,0,0,1,5,-5z" stroke-width="3"></path><g id="node_text107" fill="black"><text id="kity_text_1056" text-rendering="inherit" font-size="12" dy=".8em" y="158.70000489801168" x="506.50001337379217">QuadraticBezierCurve</text></g><a id="kity_a_1088" xlink:href="http://www.yanhuangxueyuan.com/threejs/docs/index.html#api/zh/extras/curves/QuadraticBezierCurve" target="_blank" xlink:title="http://www.yanhuangxueyuan.com/threejs/docs/index.html#api/zh/extras/curves/QuadraticBezierCurve" style="cursor: pointer;"><path id="kity_path_1090" fill="rgba(255, 255, 255, 0)" stroke="none" d="M640.5000153407454,155.50000485032797h16a4,4,0,0,1,4,4v14a4,4,0,0,1,-4,4h-16a4,4,0,0,1,-4,-4v-14a4,4,0,0,1,4,-4z"></path><path id="kity_path_1089" fill="#666" stroke="none" d="M655.1140153407455,171.72400485032796h-1.278c-1.668,0,-3.07,-1.07,-3.599,-2.556h4.877c0.707,0,1.278,-0.571,1.278,-1.278V165.33400485032797c0,-0.707,-0.571,-1.278,-1.278,-1.278h-4.877C650.7660153407454,162.57100485032797,652.1680153407455,161.50000485032797,653.8360153407455,161.50000485032797h1.278c2.116,0,3.834,1.716,3.834,3.834V167.89000485032795C658.9480153407454,170.00800485032798,657.2300153407455,171.72400485032796,655.1140153407455,171.72400485032796zM643.6120153407454,166.61200485032796c0,-0.707,0.573,-1.278,1.278,-1.278h7.668c0.707,0,1.278,0.571,1.278,1.278S653.2650153407454,167.89000485032795,652.5580153407454,167.89000485032795H644.8900153407454C644.1850153407454,167.89000485032795,643.6120153407454,167.31900485032796,643.6120153407454,166.61200485032796zM641.0560153407455,165.33400485032797V167.89000485032795c0,0.707,0.573,1.278,1.278,1.278h4.877c-0.528,1.486,-1.932,2.556,-3.599,2.556H642.3340153407454C640.2160153407455,171.72400485032796,638.5000153407454,170.00800485032798,638.5000153407454,167.89000485032795V165.33400485032797C638.5000153407454,163.21600485032798,640.2160153407455,161.50000485032797,642.3340153407454,161.50000485032797h1.278c1.667,0,3.071,1.071,3.599,2.556H642.3340153407454C641.6290153407455,164.05600485032798,641.0560153407455,164.62700485032798,641.0560153407455,165.33400485032797z"></path></a></g><g id="minder_node108"><g id="node_expander107" style="cursor: pointer;"><path id="kity_path_1159" fill="white" stroke="gray" d="M459.5000125840306,166.50000492483377A6,6,0,1,1,447.5000125840306,166.50000492483377A6,6,0,1,1,459.5000125840306,166.50000492483377"></path><path id="kity_path_1160" fill="none" stroke="gray" d="M449.0000125840306,166.50000492483377L458.0000125840306,166.50000492483377"></path></g><path id="node_outline108" fill="none" stroke="none" d="M464.5000127479434,157.50000492483377h16a5,5,0,0,1,5,5v8a5,5,0,0,1,-5,5h-16a5,5,0,0,1,-5,-5v-8a5,5,0,0,1,5,-5z"></path><g id="node_text108" fill="black"><text id="kity_text_1058" text-rendering="inherit" font-size="12" dy=".8em" y="158.70000489801168" x="464.5000127479434">2D</text></g></g><g id="minder_node112"><g id="node_expander108" style="cursor: pointer;" display="none"><path id="kity_path_1162" fill="white" stroke="gray" d="M501.5000132098794,202.50000546127558A6,6,0,1,1,489.5000132098794,202.50000546127558A6,6,0,1,1,501.5000132098794,202.50000546127558"></path><path id="kity_path_1163" fill="none" stroke="gray"></path></g><path id="node_outline109" fill="none" stroke="none" d="M506.50001337379217,188.50000546127558h160a5,5,0,0,1,5,5v18a5,5,0,0,1,-5,5h-160a5,5,0,0,1,-5,-5v-18a5,5,0,0,1,5,-5z"></path><g id="node_text109" fill="black"><text id="kity_text_1060" text-rendering="inherit" font-size="12" dy=".8em" y="194.7000054344535" x="506.50001337379217">QuadraticBezierCurve3</text></g><a id="kity_a_1091" xlink:href="http://www.yanhuangxueyuan.com/threejs/docs/index.html#api/zh/extras/curves/QuadraticBezierCurve3" target="_blank" xlink:title="http://www.yanhuangxueyuan.com/threejs/docs/index.html#api/zh/extras/curves/QuadraticBezierCurve3" style="cursor: pointer;"><path id="kity_path_1093" fill="rgba(255, 255, 255, 0)" stroke="none" d="M646.5000154301524,191.50000538676977h16a4,4,0,0,1,4,4v14a4,4,0,0,1,-4,4h-16a4,4,0,0,1,-4,-4v-14a4,4,0,0,1,4,-4z"></path><path id="kity_path_1092" fill="#666" stroke="none" d="M661.1140154301524,207.72400538676976h-1.278c-1.668,0,-3.07,-1.07,-3.599,-2.556h4.877c0.707,0,1.278,-0.571,1.278,-1.278V201.33400538676977c0,-0.707,-0.571,-1.278,-1.278,-1.278h-4.877C656.7660154301524,198.57100538676977,658.1680154301524,197.50000538676977,659.8360154301524,197.50000538676977h1.278c2.116,0,3.834,1.716,3.834,3.834V203.89000538676976C664.9480154301524,206.00800538676978,663.2300154301524,207.72400538676976,661.1140154301524,207.72400538676976zM649.6120154301524,202.61200538676977c0,-0.707,0.573,-1.278,1.278,-1.278h7.668c0.707,0,1.278,0.571,1.278,1.278S659.2650154301524,203.89000538676976,658.5580154301524,203.89000538676976H650.8900154301524C650.1850154301524,203.89000538676976,649.6120154301524,203.31900538676976,649.6120154301524,202.61200538676977zM647.0560154301525,201.33400538676977V203.89000538676976c0,0.707,0.573,1.278,1.278,1.278h4.877c-0.528,1.486,-1.932,2.556,-3.599,2.556H648.3340154301524C646.2160154301524,207.72400538676976,644.5000154301524,206.00800538676978,644.5000154301524,203.89000538676976V201.33400538676977C644.5000154301524,199.21600538676978,646.2160154301524,197.50000538676977,648.3340154301524,197.50000538676977h1.278c1.667,0,3.071,1.071,3.599,2.556H648.3340154301524C647.6290154301524,200.05600538676978,647.0560154301525,200.62700538676978,647.0560154301525,201.33400538676977z"></path></a></g><g id="minder_node111"><g id="node_expander109" style="cursor: pointer;"><path id="kity_path_1165" fill="white" stroke="gray" d="M459.5000125840306,202.50000546127558A6,6,0,1,1,447.5000125840306,202.50000546127558A6,6,0,1,1,459.5000125840306,202.50000546127558"></path><path id="kity_path_1166" fill="none" stroke="gray" d="M449.0000125840306,202.50000546127558L458.0000125840306,202.50000546127558"></path></g><path id="node_outline110" fill="none" stroke="none" d="M464.5000127479434,193.50000546127558h16a5,5,0,0,1,5,5v8a5,5,0,0,1,-5,5h-16a5,5,0,0,1,-5,-5v-8a5,5,0,0,1,5,-5z"></path><g id="node_text110" fill="black"><text id="kity_text_1062" text-rendering="inherit" font-size="12" dy=".8em" y="194.7000054344535" x="464.5000127479434">3D</text></g></g><g id="minder_node106"><g id="node_expander110" style="cursor: pointer;"><path id="kity_path_1168" fill="white" stroke="gray" d="M348.50001093000174,168.5000049546361A6,6,0,1,1,336.50001093000174,168.5000049546361A6,6,0,1,1,348.50001093000174,168.5000049546361"></path><path id="kity_path_1169" fill="none" stroke="gray" d="M338.00001093000174,168.5000049546361L347.00001093000174,168.5000049546361"></path></g><path id="node_outline111" fill="none" stroke="none" d="M353.5000110939145,159.5000049546361h85a5,5,0,0,1,5,5v8a5,5,0,0,1,-5,5h-85a5,5,0,0,1,-5,-5v-8a5,5,0,0,1,5,-5z"></path><g id="node_text111" fill="black"><text id="kity_text_1064" text-rendering="inherit" font-size="12" dy=".8em" y="160.700004927814" x="353.5000110939145">二次贝赛尔曲线</text></g></g><g id="minder_node114"><g id="node_expander111" style="cursor: pointer;" display="none"><path id="kity_path_1171" fill="white" stroke="gray" d="M459.5000125840306,233.50000592321157A6,6,0,1,1,447.5000125840306,233.50000592321157A6,6,0,1,1,459.5000125840306,233.50000592321157"></path><path id="kity_path_1172" fill="none" stroke="gray"></path></g><path id="node_outline112" fill="none" stroke="none" d="M464.5000127479434,224.50000592321157h153a5,5,0,0,1,5,5v8a5,5,0,0,1,-5,5h-153a5,5,0,0,1,-5,-5v-8a5,5,0,0,1,5,-5z"></path><g id="node_text112" fill="black"><text id="kity_text_1066" text-rendering="inherit" font-size="12" dy=".8em" y="225.70000589638948" x="464.5000127479434">起点、终点和2个控制点定义</text></g></g><g id="minder_node116"><g id="node_expander112" style="cursor: pointer;" display="none"><path id="kity_path_1174" fill="white" stroke="gray" d="M501.5000132098794,264.50000638514757A6,6,0,1,1,489.5000132098794,264.50000638514757A6,6,0,1,1,501.5000132098794,264.50000638514757"></path><path id="kity_path_1175" fill="none" stroke="gray"></path></g><path id="node_outline113" fill="none" stroke="none" d="M506.50001337379217,250.50000638514757h130a5,5,0,0,1,5,5v18a5,5,0,0,1,-5,5h-130a5,5,0,0,1,-5,-5v-18a5,5,0,0,1,5,-5z"></path><g id="node_text113" fill="black"><text id="kity_text_1068" text-rendering="inherit" font-size="12" dy=".8em" y="256.7000063583255" x="506.50001337379217">CubicBezierCurve</text></g><a id="kity_a_1094" xlink:href="http://www.yanhuangxueyuan.com/threejs/docs/index.html#api/zh/extras/curves/CubicBezierCurve" target="_blank" xlink:title="http://www.yanhuangxueyuan.com/threejs/docs/index.html#api/zh/extras/curves/CubicBezierCurve" style="cursor: pointer;"><path id="kity_path_1096" fill="rgba(255, 255, 255, 0)" stroke="none" d="M616.5000149831176,253.50000631064177h16a4,4,0,0,1,4,4v14a4,4,0,0,1,-4,4h-16a4,4,0,0,1,-4,-4v-14a4,4,0,0,1,4,-4z"></path><path id="kity_path_1095" fill="#666" stroke="none" d="M631.1140149831176,269.72400631064176h-1.278c-1.668,0,-3.07,-1.07,-3.599,-2.556h4.877c0.707,0,1.278,-0.571,1.278,-1.278V263.33400631064177c0,-0.707,-0.571,-1.278,-1.278,-1.278h-4.877C626.7660149831175,260.5710063106418,628.1680149831176,259.50000631064177,629.8360149831176,259.50000631064177h1.278c2.116,0,3.834,1.716,3.834,3.834V265.89000631064175C634.9480149831176,268.00800631064175,633.2300149831176,269.72400631064176,631.1140149831176,269.72400631064176zM619.6120149831175,264.6120063106418c0,-0.707,0.573,-1.278,1.278,-1.278h7.668c0.707,0,1.278,0.571,1.278,1.278S629.2650149831176,265.89000631064175,628.5580149831176,265.89000631064175H620.8900149831176C620.1850149831175,265.89000631064175,619.6120149831175,265.3190063106418,619.6120149831175,264.6120063106418zM617.0560149831176,263.33400631064177V265.89000631064175c0,0.707,0.573,1.278,1.278,1.278h4.877c-0.528,1.486,-1.932,2.556,-3.599,2.556H618.3340149831175C616.2160149831176,269.72400631064176,614.5000149831176,268.00800631064175,614.5000149831176,265.89000631064175V263.33400631064177C614.5000149831176,261.2160063106418,616.2160149831176,259.50000631064177,618.3340149831175,259.50000631064177h1.278c1.667,0,3.071,1.071,3.599,2.556H618.3340149831175C617.6290149831176,262.05600631064175,617.0560149831176,262.6270063106418,617.0560149831176,263.33400631064177z"></path></a></g><g id="minder_node115"><g id="node_expander113" style="cursor: pointer;"><path id="kity_path_1177" fill="white" stroke="gray" d="M459.5000125840306,264.50000638514757A6,6,0,1,1,447.5000125840306,264.50000638514757A6,6,0,1,1,459.5000125840306,264.50000638514757"></path><path id="kity_path_1178" fill="none" stroke="gray" d="M449.0000125840306,264.50000638514757L458.0000125840306,264.50000638514757"></path></g><path id="node_outline114" fill="none" stroke="none" d="M464.5000127479434,255.50000638514757h16a5,5,0,0,1,5,5v8a5,5,0,0,1,-5,5h-16a5,5,0,0,1,-5,-5v-8a5,5,0,0,1,5,-5z"></path><g id="node_text114" fill="black"><text id="kity_text_1070" text-rendering="inherit" font-size="12" dy=".8em" y="256.7000063583255" x="464.5000127479434">2D</text></g></g><g id="minder_node118"><g id="node_expander114" style="cursor: pointer;" display="none"><path id="kity_path_1180" fill="white" stroke="gray" d="M501.5000132098794,300.5000069215894A6,6,0,1,1,489.5000132098794,300.5000069215894A6,6,0,1,1,501.5000132098794,300.5000069215894"></path><path id="kity_path_1181" fill="none" stroke="gray"></path></g><path id="node_outline115" fill="none" stroke="none" d="M506.50001337379217,286.5000069215894h136a5,5,0,0,1,5,5v18a5,5,0,0,1,-5,5h-136a5,5,0,0,1,-5,-5v-18a5,5,0,0,1,5,-5z"></path><g id="node_text115" fill="black"><text id="kity_text_1072" text-rendering="inherit" font-size="12" dy=".8em" y="292.7000068947673" x="506.50001337379217">CubicBezierCurve3</text></g><a id="kity_a_1097" xlink:href="http://www.yanhuangxueyuan.com/threejs/docs/index.html#api/zh/extras/curves/CubicBezierCurve3" target="_blank" xlink:title="http://www.yanhuangxueyuan.com/threejs/docs/index.html#api/zh/extras/curves/CubicBezierCurve3" style="cursor: pointer;"><path id="kity_path_1099" fill="rgba(255, 255, 255, 0)" stroke="none" d="M622.5000150725245,289.50000684708357h16a4,4,0,0,1,4,4v14a4,4,0,0,1,-4,4h-16a4,4,0,0,1,-4,-4v-14a4,4,0,0,1,4,-4z"></path><path id="kity_path_1098" fill="#666" stroke="none" d="M637.1140150725246,305.72400684708356h-1.278c-1.668,0,-3.07,-1.07,-3.599,-2.556h4.877c0.707,0,1.278,-0.571,1.278,-1.278V299.3340068470836c0,-0.707,-0.571,-1.278,-1.278,-1.278h-4.877C632.7660150725245,296.5710068470836,634.1680150725246,295.50000684708357,635.8360150725246,295.50000684708357h1.278c2.116,0,3.834,1.716,3.834,3.834V301.89000684708355C640.9480150725245,304.00800684708355,639.2300150725246,305.72400684708356,637.1140150725246,305.72400684708356zM625.6120150725245,300.6120068470836c0,-0.707,0.573,-1.278,1.278,-1.278h7.668c0.707,0,1.278,0.571,1.278,1.278S635.2650150725245,301.89000684708355,634.5580150725245,301.89000684708355H626.8900150725245C626.1850150725245,301.89000684708355,625.6120150725245,301.3190068470836,625.6120150725245,300.6120068470836zM623.0560150725246,299.3340068470836V301.89000684708355c0,0.707,0.573,1.278,1.278,1.278h4.877c-0.528,1.486,-1.932,2.556,-3.599,2.556H624.3340150725245C622.2160150725246,305.72400684708356,620.5000150725245,304.00800684708355,620.5000150725245,301.89000684708355V299.3340068470836C620.5000150725245,297.2160068470836,622.2160150725246,295.50000684708357,624.3340150725245,295.50000684708357h1.278c1.667,0,3.071,1.071,3.599,2.556H624.3340150725245C623.6290150725246,298.05600684708355,623.0560150725246,298.6270068470836,623.0560150725246,299.3340068470836z"></path></a></g><g id="minder_node117"><g id="node_expander115" style="cursor: pointer;"><path id="kity_path_1183" fill="white" stroke="gray" d="M459.5000125840306,300.5000069215894A6,6,0,1,1,447.5000125840306,300.5000069215894A6,6,0,1,1,459.5000125840306,300.5000069215894"></path><path id="kity_path_1184" fill="none" stroke="gray" d="M449.0000125840306,300.5000069215894L458.0000125840306,300.5000069215894"></path></g><path id="node_outline116" fill="none" stroke="none" d="M464.5000127479434,291.5000069215894h16a5,5,0,0,1,5,5v8a5,5,0,0,1,-5,5h-16a5,5,0,0,1,-5,-5v-8a5,5,0,0,1,5,-5z"></path><g id="node_text116" fill="black"><text id="kity_text_1074" text-rendering="inherit" font-size="12" dy=".8em" y="292.7000068947673" x="464.5000127479434">3D</text></g></g><g id="minder_node113"><g id="node_expander116" style="cursor: pointer;"><path id="kity_path_1186" fill="white" stroke="gray" d="M348.50001093000174,266.5000064149499A6,6,0,1,1,336.50001093000174,266.5000064149499A6,6,0,1,1,348.50001093000174,266.5000064149499"></path><path id="kity_path_1187" fill="none" stroke="gray" d="M338.00001093000174,266.5000064149499L347.00001093000174,266.5000064149499"></path></g><path id="node_outline117" fill="none" stroke="none" d="M353.5000110939145,257.5000064149499h85a5,5,0,0,1,5,5v8a5,5,0,0,1,-5,5h-85a5,5,0,0,1,-5,-5v-8a5,5,0,0,1,5,-5z"></path><g id="node_text117" fill="black"><text id="kity_text_1076" text-rendering="inherit" font-size="12" dy=".8em" y="258.7000063881278" x="353.5000110939145">三次贝赛尔曲线</text></g></g></g></g></svg>